Coordinates
version=1
nRows=6
nColumns=36
inDegrees=yes

Units are S.I. units (second, meters, Newtons, ...)
If the header above contains a line with 'inDegrees', this indicates whether rotational values are in degrees (yes) or radians (no).

endheader
time	pelvis_tilt	pelvis_list	pelvis_rotation	pelvis_tx	pelvis_ty	pelvis_tz	hip_flexion_r	hip_adduction_r	hip_rotation_r	knee_angle_r	knee_angle_r_beta	ankle_angle_r	subtalar_angle_r	mtp_angle_r	hip_flexion_l	hip_adduction_l	hip_rotation_l	knee_angle_l	knee_angle_l_beta	ankle_angle_l	subtalar_angle_l	mtp_angle_l	lumbar_extension	lumbar_bending	lumbar_rotation	arm_flex_r	arm_add_r	arm_rot_r	elbow_flex_r	pro_sup_r	arm_flex_l	arm_add_l	arm_rot_l	elbow_flex_l	pro_sup_l
     44.98333330	      7.34535117	     -7.64636524	    175.59522170	      0.47857442	      0.91062987	      0.72186203	     30.06591627	     -7.89078879	      7.41175096	      5.90706517	      0.10309774	    -21.81797343	      0.54297831	     -7.49999987	      2.94504020	      8.69621726	      1.42659331	     17.06861674	      0.29790356	     10.61001159	     -5.57852420	     -7.49999987	     -4.13390854	     -9.61475374	     -4.99623626	     -5.87119384	      1.15489699	    -20.94025378	     13.17513555	     86.81431281	     19.23013669	    -19.19051094	     11.02441688	     25.89016353	     94.94105910
     45.00000000	      7.28775675	     -7.79875881	    175.59293163	      0.47714216	      0.90905077	      0.72074668	     30.18984870	     -7.94094902	      7.23823126	      5.33480758	      0.09310996	    -22.48367317	     -0.01892253	     -7.49999987	      2.18543659	      8.88421806	      1.97541311	     18.34536151	      0.32018696	     11.04447842	     -5.73536009	     -7.49999987	     -4.05503977	     -9.83644676	     -3.94862597	     -5.79474256	      1.24741004	    -22.38027747	     13.13435719	     87.38924787	     19.98115085	    -19.02955808	     13.94441229	     25.07705308	     96.55415837
     45.01666670	      7.13414837	     -7.82200104	    175.42593820	      0.47621616	      0.90700669	      0.72008665	     30.33669921	     -7.76431482	      6.59566622	      5.32718907	      0.09297699	    -23.01200863	     -0.59470238	     -7.49999987	      1.96136645	      8.97095846	      2.19786875	     20.97276908	      0.36604387	     11.51958477	     -6.17097520	     -7.49999987	     -4.21431531	     -9.82973065	     -3.45498392	     -5.44577739	      1.08264906	    -22.45223386	     13.36259272	     87.38722111	     19.81687796	    -18.79347617	     14.07111144	     25.22066497	     96.44450804
     45.03333330	      6.73883467	     -7.83497943	    174.90963146	      0.47571638	      0.90486256	      0.71933338	     30.47275112	     -7.39589791	      6.01542047	      6.03620354	      0.10535163	    -23.31989406	     -1.26986666	     -7.49999987	      2.27202209	      9.07851524	      1.88966901	     25.26248858	      0.44091360	     11.86119323	     -6.94696029	     -7.49999987	     -4.77495384	     -9.80561292	     -2.88015245	     -4.86438026	      0.84553239	    -22.46641769	     13.79272710	     87.27783545	     19.70119263	    -18.65027461	     14.17613679	     25.42723034	     96.19706532
     45.05000000	      6.58133126	     -7.43147228	    174.56448735	      0.47523559	      0.90311146	      0.71855714	     30.80479287	     -6.64907125	      5.10304122	      7.31137098	      0.12760750	    -23.73065899	     -3.20236951	     -7.49999987	      3.65616768	      8.75092170	      1.68590876	     31.32309348	      0.54669111	     12.22454469	     -7.87268678	     -7.49999987	     -5.09959241	     -9.23923145	     -2.08032156	     -4.17717820	      0.29791866	    -22.43111713	     13.47565821	     87.46068454	     19.75393975	    -18.04651614	     14.47249354	     25.31986933	     96.33075932
     45.06666670	      6.03509741	     -6.81076775	    173.65210365	      0.47407989	      0.90300412	      0.71522979	     30.88780405	     -5.39926224	      4.28751930	      9.67545154	      0.16886849	    -23.14073851	     -4.70910437	     -7.49999987	      4.88787163	      8.07054887	      0.82631053	     37.66547879	      0.65738662	     11.69337016	     -8.85159190	     -7.49999987	     -6.04348864	     -8.49770950	     -1.21403666	     -3.06430478	     -0.31247964	    -22.35774471	     13.58762365	     87.54977284	     19.64551367	    -17.58994669	     14.59028487	     25.23738007	     96.37669919
